<?xml version="1.0" standalone="no"?>
<!DOCTYPE svg PUBLIC "-//W3C//DTD SVG 20010904//EN"
 "http://www.w3.org/TR/2001/REC-SVG-20010904/DTD/svg10.dtd">
<svg version="1.0" xmlns="http://www.w3.org/2000/svg"
 width="171.000000pt" height="171.000000pt" viewBox="0 0 171.000000 171.000000"
 preserveAspectRatio="xMidYMid meet">
<metadata>
Created by potrace 1.14, written by Peter Selinger 2001-2017
</metadata>
<g transform="translate(0.000000,171.000000) scale(0.100000,-0.100000)"
fill="#000000" stroke="none">
<path d="M1227 1346 c-55 -20 -103 -61 -134 -114 -24 -40 -28 -58 -28 -122 0
-63 4 -82 27 -120 110 -189 381 -165 453 39 55 156 -53 317 -218 327 -38 3
-77 -1 -100 -10z m109 -92 c20 -54 44 -71 101 -77 24 -2 46 -7 50 -11 4 -4
-12 -24 -35 -45 -44 -41 -50 -60 -32 -121 14 -49 -1 -56 -50 -25 -46 29 -88
29 -119 1 -9 -8 -25 -16 -36 -18 -21 -3 -21 -4 -9 79 6 41 5 45 -37 83 -49 45
-44 58 18 58 47 0 77 23 97 76 10 25 21 46 26 46 5 0 16 -21 26 -46z"/>
<path d="M567 1165 c-32 -17 -49 -36 -152 -175 -43 -58 -81 -107 -84 -110 -3
-3 -18 -21 -33 -40 -31 -42 -53 -67 -130 -145 -52 -54 -57 -63 -45 -79 13 -17
17 -15 58 29 24 27 51 56 59 64 36 39 153 184 225 281 95 127 120 150 161 150
38 0 78 -35 194 -170 152 -176 344 -366 535 -530 152 -130 164 -138 176 -119
14 22 12 24 -48 70 -54 40 -138 110 -243 204 -96 86 -314 312 -414 428 -57 67
-118 130 -134 140 -36 21 -87 22 -125 2z"/>
</g>
</svg>
